HIERARCHY
ROOT Hips
{
	OFFSET -0.179506 -22.333345 2.821913
	CHANNELS 6 Xposition Yposition Zposition Zrotation Yrotation Xrotation 
	JOINT LeftUpLeg
	{
		OFFSET 6.951974 -9.140623 -0.681533
		CHANNELS 3 Zrotation Yrotation Xrotation
		JOINT LeftLeg
		{
			OFFSET 3.427654 -37.519855 -0.449580
			CHANNELS 3 Zrotation Yrotation Xrotation
			JOINT LeftFoot
			{
				OFFSET -1.359570 -39.796059 -4.369333
				CHANNELS 3 Zrotation Yrotation Xrotation
				JOINT LeftToe
				{
					OFFSET 2.635814 -5.579078 11.928840
					CHANNELS 3 Zrotation Yrotation Xrotation
					End Site
					{
						OFFSET 0.000000 0.000000 0.000000
					}
				}
			}
		}
	}
	JOINT RightUpLeg
	{
		OFFSET -6.767048 -9.052170 -0.431982
		CHANNELS 3 Zrotation Yrotation Xrotation
		JOINT RightLeg
		{
			OFFSET -3.829005 -38.256897 -0.885003
			CHANNELS 3 Zrotation Yrotation Xrotation
			JOINT RightFoot
			{
				OFFSET 1.577377 -39.841461 -4.231180
				CHANNELS 3 Zrotation Yrotation Xrotation
				JOINT RightToe
				{
					OFFSET -2.537174 -4.814398 12.334795
					CHANNELS 3 Zrotation Yrotation Xrotation
					End Site
					{
						OFFSET 0.000000 0.000000 0.000000
					}
				}
			}
		}
	}
	JOINT Spine
	{
		OFFSET -0.253288 10.896323 -2.669631
		CHANNELS 3 Zrotation Yrotation Xrotation
		JOINT Spine1
		{
			OFFSET 0.548704 13.518043 0.109247
			CHANNELS 3 Zrotation Yrotation Xrotation
			JOINT Spine2
			{
				OFFSET 0.145701 5.292222 2.542457
				CHANNELS 3 Zrotation Yrotation Xrotation
				JOINT Neck
				{
					OFFSET -0.277840 21.387037 -4.285703
					CHANNELS 3 Zrotation Yrotation Xrotation
					JOINT Head
					{
						OFFSET 0.515184 6.496960 5.134897
						CHANNELS 3 Zrotation Yrotation Xrotation
						End Site
						{
							OFFSET 0.000000 0.000000 0.000000
						}
					}
				}
				JOINT LeftShoulder
				{
					OFFSET 7.884473 12.174932 -3.408961
					CHANNELS 3 Zrotation Yrotation Xrotation
					JOINT LeftArm
					{
						OFFSET 9.097692 3.046888 -0.886815
						CHANNELS 3 Zrotation Yrotation Xrotation
						JOINT LeftForeArm
						{
							OFFSET 25.961220 -1.277207 -2.745643
							CHANNELS 3 Zrotation Yrotation Xrotation
							JOINT LeftHand
							{
								OFFSET 24.923361 0.898606 -0.117091
								CHANNELS 3 Zrotation Yrotation Xrotation
								End Site
								{
									OFFSET 0.000000 0.000000 0.000000
								}
							}
						}
					}
				}
				JOINT RightShoulder
				{
					OFFSET -8.175920 11.883285 -3.861528
					CHANNELS 3 Zrotation Yrotation Xrotation
					JOINT RightArm
					{
						OFFSET -9.601238 3.255117 -0.914307
						CHANNELS 3 Zrotation Yrotation Xrotation
						JOINT RightForeArm
						{
							OFFSET -25.374195 -1.332924 -2.140099
							CHANNELS 3 Zrotation Yrotation Xrotation
							JOINT RightHand
							{
								OFFSET -25.529810 0.777228 -0.555919
								CHANNELS 3 Zrotation Yrotation Xrotation
								End Site
								{
									OFFSET 0.000000 0.000000 0.000000
								}
							}
						}
					}
				}
			}
		}
	}
}
MOTION
Frames: 12
Frame Time: 0.033333
-125.664902 45.216488 92.104713 117.119707 -10.986629 83.542736 -5.241507 6.813826 16.858509 -2.873586 7.743612 53.079739 -21.190301 1.334013 17.847498 nan nan nan -5.580742 -10.819364 -13.868179 -6.985290 -36.080904 36.817217 -10.512106 -8.275609 -32.311048 nan nan nan 11.372633 -0.909359 4.457621 3.621571 3.631997 9.481378 2.015360 5.438451 -7.255016 -2.420735 17.777943 19.129227 -11.004987 14.592618 14.188008 -0.656034 -4.798639 2.472419 -55.292995 -15.872999 -3.490013 139.252622 -47.116501 -105.542496 22.307228 -33.674955 -34.628257 10.467397 25.234792 5.923931 67.923110 40.835573 19.160649 -5.288112 70.958647 19.590667 -19.394126 27.175439 -16.826139 
-125.701637 44.801338 91.835487 118.388358 -10.379797 83.426787 -4.156605 7.175127 17.503946 -2.880777 7.512525 52.605647 -21.148419 1.365905 17.763629 nan nan nan -5.151312 -11.136113 -13.887321 -6.897552 -37.005226 37.228277 -10.524357 -8.067832 -32.631722 nan nan nan 10.936472 -1.101586 4.773336 3.506948 3.526370 8.998795 2.096284 5.630441 -7.318119 -2.110717 17.956092 18.648611 -10.611342 14.107895 14.817465 -0.611692 -5.521963 2.048904 -55.527014 -16.874380 -3.129379 140.238082 -46.870527 -106.393304 22.316985 -33.818776 -34.329728 10.602334 26.015662 5.894495 69.004407 41.450449 19.601569 -7.467230 70.988769 17.659098 -20.326498 27.107185 -16.748783 
-125.730209 44.364204 91.626671 119.862129 -9.935270 83.127613 -3.097000 7.472754 18.111719 -2.946553 7.439951 52.192481 -20.558890 1.630243 17.557640 nan nan nan -4.974751 -11.723352 -13.761608 -6.764089 -37.662450 37.778782 -10.251260 -7.788617 -32.757390 nan nan nan 10.305625 -1.192579 5.072794 3.402159 3.395985 8.639302 2.186385 5.784069 -7.243573 -1.673691 18.062369 18.020659 -10.261609 13.598490 15.904963 -0.689962 -6.326001 1.620193 -55.792260 -18.023886 -2.612303 141.045580 -46.772660 -106.992413 22.601115 -33.916521 -33.932951 10.718284 26.689207 5.766610 70.083468 42.137332 20.125296 -10.106573 70.805114 15.168995 -21.244279 27.187370 -16.580006 
-125.796165 43.904514 91.466736 121.435425 -9.618911 82.751583 -2.071415 7.689266 18.604013 -2.960062 7.605189 51.836898 -19.558879 1.765527 17.015461 nan nan nan -4.963911 -12.389040 -13.587527 -6.615799 -38.154152 38.310180 -10.051178 -7.631905 -32.670066 nan nan nan 9.512951 -1.102422 5.432122 3.290888 3.294356 8.379822 2.303992 5.939595 -7.244690 -1.165957 18.049845 17.515091 -9.880899 13.209416 17.090997 -0.702048 -7.373731 1.255213 -56.374934 -19.250295 -1.990766 141.644963 -46.821887 -107.012289 23.186735 -33.892924 -33.459151 10.693724 27.398643 5.566538 71.051242 42.724545 20.457465 -13.227660 70.652139 12.299196 -21.608544 27.070014 -16.739601 
-125.885033 43.433022 91.349449 123.129640 -9.413629 82.355860 -1.057855 7.932408 18.919565 -2.809647 7.904015 51.474448 -18.346523 1.910993 16.201826 nan nan nan -5.056231 -13.098740 -13.392450 -6.458155 -38.605702 38.679991 -9.858931 -7.652077 -32.512779 nan nan nan 8.630789 -0.905782 5.916953 3.071609 3.260268 7.998640 2.420319 6.013405 -7.193614 -0.822739 17.755681 16.882036 -9.474620 12.871013 18.042065 -0.575582 -8.373182 1.058708 -57.292256 -20.772053 -1.374387 142.167375 -46.945717 -106.786643 23.619728 -33.788502 -33.389076 10.642888 28.169494 5.636957 71.805014 43.474231 20.458755 -16.451227 70.664764 9.286205 -21.546241 27.083861 -17.802918 
-125.977066 42.948624 91.295815 124.978391 -9.203807 81.797157 0.044184 8.146031 19.197365 -2.418764 8.400195 51.059116 -17.103943 2.203654 15.293151 nan nan nan -5.177368 -13.794607 -12.961338 -6.329492 -39.185990 38.851462 -9.579826 -7.658565 -32.363820 nan nan nan 7.823595 -0.695477 6.454334 2.796526 3.285918 7.911053 2.497859 5.954651 -7.119659 -0.782283 17.297159 16.049066 -9.052432 12.472401 18.590534 -0.420832 -9.132654 0.853032 -58.549717 -22.577725 -0.641052 142.614698 -47.056246 -106.483817 23.472959 -33.636788 -34.166464 10.300076 28.923582 5.610537 72.412270 44.355627 20.420174 -19.897091 70.666080 5.856713 -20.810441 27.627810 -19.986547 
-126.106575 42.465294 91.296417 126.854040 -9.059184 81.173987 1.106640 8.466960 19.434356 -1.762666 9.040045 50.460674 -16.098150 2.510804 14.239763 nan nan nan -5.309746 -14.458659 -12.480978 -6.306172 -39.621841 38.914409 -9.366367 -7.667046 -32.113160 nan nan nan 7.151042 -0.399454 6.971319 2.451469 3.450821 8.114222 2.538452 5.874409 -7.137794 -0.942240 16.907900 15.437098 -8.556300 12.029918 18.913364 -0.396284 -9.973390 0.514389 -59.894061 -24.248071 0.280363 142.793296 -47.269538 -106.119825 23.046379 -33.566385 -34.825309 9.434685 29.525581 4.927422 73.084069 45.017651 20.612301 -23.320858 70.440560 2.174257 -19.782911 27.927978 -21.353414 
-126.272949 41.988689 91.340515 128.758783 -9.029815 80.682942 2.035201 8.868944 19.438364 -0.937562 9.818383 49.667954 -15.642644 2.652331 13.012125 nan nan nan -5.458507 -15.066956 -12.189290 -6.608588 -40.121980 39.067621 -9.110924 -7.405422 -31.826433 nan nan nan 6.586115 -0.100077 7.581553 1.915098 3.664061 8.079585 2.472251 5.833359 -7.199222 -1.101877 16.587430 15.122981 -7.947356 11.592618 19.120988 -0.320848 -10.766849 0.065917 -61.281909 -25.576332 1.258223 142.903484 -47.742416 -105.953469 22.598616 -33.507707 -34.683634 8.569782 29.960160 4.147367 73.838634 45.674795 20.850907 -25.619223 70.024923 -0.367935 -19.334953 27.611453 -20.695084 
-126.409012 41.496552 91.414360 130.681938 -8.935899 80.328538 2.993463 9.113948 19.233153 -0.117188 10.889348 48.656221 -15.626792 2.437271 11.792867 nan nan nan -5.407068 -15.305644 -12.021962 -7.126303 -40.839395 39.142886 -8.748395 -7.225035 -31.538473 nan nan nan 6.075890 0.177539 7.972943 1.378538 3.793749 8.105139 2.353885 5.945346 -7.440949 -1.108709 16.141724 15.408267 -7.260204 11.249288 19.055680 -0.288309 -11.904783 -0.138846 -62.823323 -26.634575 2.340260 142.806768 -48.106445 -105.939814 21.934177 -33.621230 -33.833278 7.969470 30.689489 3.962230 74.012716 46.357438 20.486000 -28.087257 69.594388 -3.073518 -18.669726 27.528437 -19.859360 
-126.516411 41.009048 91.512253 132.690551 -8.731533 79.812564 4.146727 9.251565 19.054292 0.604276 12.185900 47.865846 -15.141458 3.438793 10.542042 nan nan nan -5.329928 -15.404929 -11.572479 -7.383410 -41.571517 38.911808 -8.593903 -7.507794 -31.070417 nan nan nan 5.632745 0.470508 8.351862 0.926145 3.886759 8.143145 2.243690 6.170522 -7.456279 -0.934528 15.568127 15.741989 -6.530993 10.908256 19.204881 -0.252267 -13.134257 -0.504774 -64.624925 -27.749916 3.682775 142.457708 -48.695305 -105.727921 21.058010 -33.625972 -33.682878 7.283140 31.529191 4.019856 73.482116 47.087217 19.525321 -31.342496 69.367210 -6.183776 -18.009237 27.243752 -19.750414 
-126.622650 40.512714 91.644295 134.873549 -8.517635 79.316895 5.357741 9.429643 18.653050 1.619860 13.762333 47.651447 -14.698091 5.738625 10.324311 nan nan nan -5.270278 -15.500059 -11.175772 -7.613085 -42.276270 38.647592 -8.493881 -7.966380 -30.529988 nan nan nan 5.158156 0.785805 8.620873 0.637240 4.183963 8.066290 2.120845 6.174015 -7.083565 -0.465646 15.108570 15.679946 -6.179263 10.257934 19.694245 -0.385285 -13.886413 -0.821007 -66.453568 -29.258115 5.431714 141.854486 -49.724244 -104.895132 20.814172 -33.383104 -34.653564 6.522233 31.806431 3.909273 73.067596 48.150022 18.999391 -33.910768 68.920546 -8.154311 -18.202769 26.828801 -20.454876 
-126.709778 40.023975 91.826385 137.162450 -8.296535 78.847954 6.616379 9.883141 18.089365 2.833235 15.048296 48.463057 -13.182154 7.205605 9.210628 nan nan nan -5.077609 -15.788997 -11.040362 -8.100954 -42.429808 38.650740 -8.210968 -8.557731 -29.935609 nan nan nan 4.638905 1.203910 8.896447 0.372214 4.576468 7.919568 2.127743 6.056031 -6.719520 -0.313857 14.290319 15.615361 -5.765291 10.055683 19.951835 -0.709830 -14.377073 -0.879250 -68.142272 -30.866393 6.961854 141.552151 -51.360357 -104.210405 21.264710 -32.821986 -35.855206 5.587814 31.668272 3.492869 73.078501 49.033826 18.737432 -36.032670 68.250508 -9.986884 -18.281286 26.987127 -21.377242 
